<svg width="36" height="35" viewBox="0 0 36 35" fill="none" xmlns="http://www.w3.org/2000/svg">
<g clip-path="url(#clip0_503_1028)">
<path d="M18.1666 0C8.50225 0 0.666626 7.83563 0.666626 17.5C0.666626 27.1644 8.50225 35 18.1666 35C27.831 35 35.6666 27.1644 35.6666 17.5C35.6666 7.83563 27.831 0 18.1666 0ZM22.5416 11.6667H20.5729C19.7883 11.6667 19.625 11.989 19.625 12.8013V14.5833H22.5416L22.2368 17.5H19.625V27.7083H15.25V17.5H12.3333V14.5833H15.25V11.2175C15.25 8.63771 16.6077 7.29167 19.6673 7.29167H22.5416V11.6667Z" fill="#2276A5"/>
</g>
<defs>
<clipPath id="clip0_503_1028">
<rect width="35" height="35" fill="white" transform="translate(0.666626)"/>
</clipPath>
</defs>
</svg>
