<svg width="165" height="165" viewBox="0 0 165 165" fill="none" xmlns="http://www.w3.org/2000/svg">
<g clip-path="url(#clip0_569_191)">
<path d="M151.25 55L13.75 55C6.16 55 0 61.16 0 68.75L0 151.25C0 158.84 6.16 165 13.75 165H151.25C158.84 165 165 158.84 165 151.25V68.75C165 61.16 158.84 55 151.25 55ZM135.747 90.4956C138.311 90.4956 140.394 92.5719 140.394 95.1431C140.394 97.7075 138.311 99.7837 135.747 99.7837C133.183 99.7837 131.099 97.7075 131.099 95.1431C131.099 92.5719 133.183 90.4956 135.747 90.4956ZM122.877 97.9206C125.441 97.9206 127.518 100.004 127.518 102.568C127.518 105.132 125.441 107.209 122.877 107.209C120.312 107.209 118.222 105.132 118.222 102.568C118.222 100.004 120.312 97.9206 122.877 97.9206ZM95.1363 79.6125C97.7006 79.6125 99.7837 81.6888 99.7837 84.2531C99.7837 86.8244 97.7006 88.9006 95.1363 88.9006C92.5719 88.9006 90.4887 86.8244 90.4887 84.2531C90.4887 81.6888 92.5719 79.6125 95.1363 79.6125ZM55 96.25H41.25L34.375 82.5L27.5 96.25H13.75L13.75 68.75H72.4831C65.0238 73.0469 56.2925 88.0825 55 96.25ZM75.625 109.752C75.625 107.188 77.7081 105.112 80.2725 105.112C82.8369 105.112 84.92 107.188 84.92 109.752C84.92 112.324 82.8369 114.4 80.2725 114.4C77.7081 114.4 75.625 112.317 75.625 109.752ZM84.2531 129.511C81.6888 129.511 79.6056 127.435 79.6056 124.864C79.6056 122.299 81.6888 120.223 84.2531 120.223C86.8175 120.223 88.9006 122.299 88.9006 124.864C88.9006 127.435 86.8175 129.511 84.2531 129.511ZM84.2531 99.7837C81.6888 99.7837 79.6056 97.7075 79.6056 95.1363C79.6056 92.565 81.6888 90.4887 84.2531 90.4887C86.8175 90.4887 88.9006 92.565 88.9006 95.1363C88.9006 97.7075 86.8175 99.7837 84.2531 99.7837ZM95.1363 140.394C92.5719 140.394 90.4887 138.318 90.4887 135.754C90.4887 133.183 92.5719 131.106 95.1363 131.106C97.7006 131.106 99.7837 133.189 99.7837 135.754C99.7837 138.318 97.7006 140.394 95.1363 140.394ZM97.1231 122.079C94.5587 122.079 92.4825 119.996 92.4825 117.432C92.4825 114.867 94.5587 112.791 97.1231 112.791C99.6875 112.791 101.777 114.867 101.777 117.432C101.777 119.996 99.6875 122.079 97.1231 122.079ZM97.1231 107.216C94.5587 107.216 92.4825 105.139 92.4825 102.575C92.4825 100.004 94.5587 97.9275 97.1231 97.9275C99.6875 97.9275 101.777 100.011 101.777 102.575C101.777 105.133 99.6875 107.216 97.1231 107.216ZM110 144.375C107.436 144.375 105.353 142.299 105.353 139.734C105.353 137.17 107.436 135.087 110 135.087C112.564 135.087 114.641 137.17 114.641 139.734C114.641 142.299 112.564 144.375 110 144.375ZM110 129.511C107.436 129.511 105.353 127.435 105.353 124.864C105.353 122.299 107.436 120.223 110 120.223C112.564 120.223 114.641 122.299 114.641 124.864C114.641 127.435 112.564 129.511 110 129.511ZM110 114.648C107.436 114.648 105.353 112.564 105.353 110C105.353 107.436 107.436 105.353 110 105.353C112.564 105.353 114.641 107.436 114.641 110C114.641 112.564 112.564 114.648 110 114.648ZM110 99.7837C107.436 99.7837 105.353 97.7075 105.353 95.1431C105.353 92.5719 107.436 90.4956 110 90.4956C112.564 90.4956 114.641 92.5719 114.641 95.1431C114.641 97.7006 112.564 99.7837 110 99.7837ZM110 84.92C107.436 84.92 105.353 82.8369 105.353 80.2725C105.353 77.7081 107.436 75.625 110 75.625C112.564 75.625 114.641 77.7081 114.641 80.2725C114.641 82.8369 112.564 84.92 110 84.92ZM118.222 117.432C118.222 114.867 120.312 112.791 122.877 112.791C125.441 112.791 127.518 114.867 127.518 117.432C127.518 119.996 125.441 122.079 122.877 122.079C120.312 122.079 118.222 119.996 118.222 117.432ZM124.864 140.394C122.299 140.394 120.216 138.318 120.216 135.754C120.216 133.183 122.299 131.106 124.864 131.106C127.428 131.106 129.511 133.189 129.511 135.754C129.511 138.318 127.428 140.394 124.864 140.394ZM124.864 88.9006C122.299 88.9006 120.216 86.8244 120.216 84.2531C120.216 81.6888 122.299 79.6125 124.864 79.6125C127.428 79.6125 129.511 81.6888 129.511 84.2531C129.511 86.8175 127.428 88.9006 124.864 88.9006ZM135.747 129.511C133.183 129.511 131.099 127.435 131.099 124.864C131.099 122.299 133.183 120.223 135.747 120.223C138.311 120.223 140.394 122.299 140.394 124.864C140.394 127.435 138.311 129.511 135.747 129.511ZM139.727 114.648C137.163 114.648 135.08 112.564 135.08 110C135.08 107.436 137.163 105.353 139.727 105.353C142.292 105.353 144.375 107.436 144.375 110C144.375 112.564 142.292 114.648 139.727 114.648ZM41.25 48.125H20.625C20.625 48.125 27.5 40.1775 27.5 34.375L27.5 3.4375C27.5 1.54 29.04 0 30.9375 0C32.835 0 34.375 1.54 34.375 3.4375V34.375C34.375 40.5006 41.25 48.125 41.25 48.125Z" fill="#2276A5"/>
</g>
<defs>
<clipPath id="clip0_569_191">
<rect width="165" height="165" fill="white"/>
</clipPath>
</defs>
</svg>
