<svg width="35" height="35" viewBox="0 0 35 35" fill="none" xmlns="http://www.w3.org/2000/svg">
<path fill-rule="evenodd" clip-rule="evenodd" d="M17.5 35C27.165 35 35 27.165 35 17.5C35 7.83502 27.165 0 17.5 0C7.83502 0 0 7.83502 0 17.5C0 27.165 7.83502 35 17.5 35ZM12.6667 18C12.6667 16.6217 11.545 15.5 10.1667 15.5C8.78833 15.5 7.66667 16.6217 7.66667 18C7.66667 19.3783 8.78833 20.5 10.1667 20.5C11.545 20.5 12.6667 19.3783 12.6667 18ZM6 18C6 15.6992 7.865 13.8333 10.1667 13.8333C12.4683 13.8333 14.3333 15.6992 14.3333 18C14.3333 20.3008 12.4683 22.1667 10.1667 22.1667C7.865 22.1667 6 20.3008 6 18ZM20.2208 22.4175C20.83 21.755 21.6958 21.3333 22.6667 21.3333C24.5075 21.3333 26 22.8258 26 24.6667C26 26.5075 24.5075 28 22.6667 28C20.8258 28 19.3333 26.5075 19.3333 24.6667C19.3333 24.3967 19.3742 24.1383 19.4342 23.8875L14.8608 21.4483C15.19 21.0025 15.4558 20.5083 15.6475 19.9783L20.2208 22.4175ZM21 24.6667C21 25.5858 21.7475 26.3333 22.6667 26.3333C23.5858 26.3333 24.3333 25.5858 24.3333 24.6667C24.3333 23.7475 23.5858 23 22.6667 23C21.7475 23 21 23.7475 21 24.6667ZM19.3333 11.3333C19.3333 9.4925 20.8258 8 22.6667 8C24.5075 8 26 9.4925 26 11.3333C26 13.1742 24.5075 14.6667 22.6667 14.6667C21.6958 14.6667 20.83 14.245 20.2208 13.5825L15.6475 16.0217C15.455 15.4917 15.19 14.9983 14.8608 14.5517L19.4342 12.1125C19.3742 11.8617 19.3333 11.6033 19.3333 11.3333ZM21 11.3333C21 12.2525 21.7475 13 22.6667 13C23.5858 13 24.3333 12.2525 24.3333 11.3333C24.3333 10.4142 23.5858 9.66667 22.6667 9.66667C21.7475 9.66667 21 10.4142 21 11.3333Z" fill="#286887"/>
</svg>
