<svg width="36" height="35" viewBox="0 0 36 35" fill="none" xmlns="http://www.w3.org/2000/svg">
<path fill-rule="evenodd" clip-rule="evenodd" d="M18 35C27.665 35 35.5 27.165 35.5 17.5C35.5 7.83502 27.665 0 18 0C8.33502 0 0.5 7.83502 0.5 17.5C0.5 27.165 8.33502 35 18 35ZM29.6667 17.5C29.6667 11.061 24.439 5.83333 18 5.83333C11.561 5.83333 6.33333 11.061 6.33333 17.5C6.33333 23.939 11.561 29.1667 18 29.1667C24.439 29.1667 29.6667 23.939 29.6667 17.5ZM15.5131 21.3889H20.486C19.9843 23.6581 19.1608 25.2807 18 26.9733C16.914 25.3886 16.0439 23.7806 15.5131 21.3889ZM9.08764 21.3889H13.5278C13.9215 23.3897 14.6361 25.2613 15.655 26.9461C12.6888 26.2228 10.2893 24.1354 9.08764 21.3889ZM22.4722 21.3889H26.9124C25.7214 24.1101 23.286 26.1829 20.3576 26.9247C21.4076 25.1679 22.0921 23.3217 22.4722 21.3889ZM8.47222 15.5556H13.2964C13.1525 16.8467 13.135 18.1524 13.2507 19.4444H8.47222C8.21264 18.166 8.21264 16.8321 8.47222 15.5556ZM15.2544 15.5556H20.7446C20.904 16.8457 20.9254 18.1533 20.7961 19.4444H15.2029C15.0746 18.1533 15.094 16.8447 15.2544 15.5556ZM22.7026 15.5556H27.5278C27.7932 16.87 27.7806 18.1951 27.5278 19.4444H22.7493C22.864 18.1524 22.8465 16.8467 22.7026 15.5556ZM9.08764 13.6111C10.2971 10.8471 12.7179 8.75292 15.7094 8.04125C14.7567 9.73681 14.0343 11.6258 13.6114 13.6111H9.08764ZM15.6044 13.6111C16.1421 11.3517 16.9403 9.71542 17.999 7.99458C19.0947 9.77278 19.8754 11.4275 20.3946 13.6111H15.6044ZM22.3876 13.6111C21.9861 11.7172 21.2861 9.82333 20.3013 8.06167C23.2549 8.79083 25.7146 10.8733 26.9124 13.6111H22.3876Z" fill="#2276A5"/>
</svg>
