<svg width="36" height="35" viewBox="0 0 36 35" fill="none" xmlns="http://www.w3.org/2000/svg">
<g clip-path="url(#clip0_504_1033)">
<path d="M18.3785 9.00083C13.7396 9.00083 9.96831 12.7721 9.96686 17.4096C9.9654 19.3025 10.521 20.72 11.4529 22.2031L10.6041 25.3065L13.7862 24.4708C15.2125 25.3167 16.5731 25.8242 18.3727 25.8256C23.0073 25.8256 26.7829 22.0529 26.7844 17.4169C26.7858 12.7692 23.0291 9.00229 18.3785 9.00083ZM23.3252 21.0233C23.1152 21.614 22.1046 22.1521 21.6189 22.225C21.1829 22.2906 20.6316 22.3169 20.0264 22.1244C19.6589 22.0077 19.1879 21.8517 18.5856 21.5921C16.0496 20.4969 14.3944 17.9433 14.2675 17.7756C14.1406 17.6065 13.235 16.4048 13.235 15.1608C13.235 13.9169 13.8883 13.3044 14.1202 13.0521C14.3521 12.7998 14.6248 12.7356 14.7939 12.7356L15.2781 12.7444C15.4327 12.7517 15.6412 12.686 15.8469 13.179C16.0569 13.685 16.5629 14.929 16.6256 15.0558C16.6883 15.1827 16.7306 15.33 16.646 15.4992C16.5614 15.6683 16.5191 15.7733 16.3937 15.9206L16.0146 16.364C15.8877 16.4894 15.7564 16.6265 15.9037 16.8802C16.051 17.134 16.5585 17.9608 17.3096 18.6317C18.275 19.4935 19.0902 19.7604 19.3425 19.8858C19.5948 20.0112 19.7421 19.9908 19.8908 19.8231C20.0381 19.654 20.5223 19.0852 20.6914 18.8315C20.8606 18.5792 21.0283 18.62 21.2602 18.7046C21.4921 18.7892 22.7346 19.4002 22.9869 19.5271C23.2391 19.654 23.4083 19.7167 23.471 19.8217C23.5366 19.9267 23.5366 20.4327 23.3252 21.0233ZM18.3333 0C8.66894 0 0.833313 7.83563 0.833313 17.5C0.833313 27.1644 8.66894 35 18.3333 35C27.9977 35 35.8333 27.1644 35.8333 17.5C35.8333 7.83563 27.9977 0 18.3333 0ZM18.3756 27.5333C16.6825 27.5333 15.0141 27.1075 13.5369 26.3025L8.17456 27.7083L9.60956 22.4656C8.72436 20.9315 8.25769 19.1902 8.25915 17.4081C8.2606 11.83 12.7989 7.29167 18.3756 7.29167C21.0823 7.29313 23.6227 8.34604 25.5316 10.2579C27.4421 12.1698 28.4935 14.7117 28.4921 17.4154C28.4906 22.9935 23.9523 27.5333 18.3756 27.5333Z" fill="#2276A5"/>
</g>
<defs>
<clipPath id="clip0_504_1033">
<rect width="35" height="35" fill="white" transform="translate(0.833313)"/>
</clipPath>
</defs>
</svg>
