<svg width="258" height="40" viewBox="0 0 258 40" fill="none" xmlns="http://www.w3.org/2000/svg">
<line x1="0.75" y1="3.27835e-08" x2="0.749998" y2="40" stroke="white" stroke-width="1.5"/>
<line x1="126.75" y1="3.27835e-08" x2="126.75" y2="40" stroke="white" stroke-width="1.5"/>
<line x1="243.5" y1="10" x2="243.5" y2="30" stroke="white" stroke-opacity="0.7"/>
<line x1="139.5" y1="10" x2="139.5" y2="30" stroke="white" stroke-opacity="0.7"/>
<line x1="152.5" y1="10" x2="152.5" y2="30" stroke="white" stroke-opacity="0.7"/>
<line x1="165.5" y1="10" x2="165.5" y2="30" stroke="white" stroke-opacity="0.7"/>
<line x1="178.5" y1="10" x2="178.5" y2="30" stroke="white" stroke-opacity="0.7"/>
<line x1="191.5" y1="10" x2="191.5" y2="30" stroke="white" stroke-opacity="0.7"/>
<line x1="204.5" y1="10" x2="204.5" y2="30" stroke="white" stroke-opacity="0.7"/>
<line x1="217.5" y1="10" x2="217.5" y2="30" stroke="white" stroke-opacity="0.7"/>
<line x1="230.5" y1="10" x2="230.5" y2="30" stroke="white" stroke-opacity="0.7"/>
<line x1="115.5" y1="10" x2="115.5" y2="30" stroke="white" stroke-opacity="0.7"/>
<line x1="11.5" y1="10" x2="11.5" y2="30" stroke="white" stroke-opacity="0.7"/>
<line x1="24.5" y1="10" x2="24.5" y2="30" stroke="white" stroke-opacity="0.7"/>
<line x1="37.5" y1="10" x2="37.5" y2="30" stroke="white" stroke-opacity="0.7"/>
<line x1="50.5" y1="10" x2="50.5" y2="30" stroke="white" stroke-opacity="0.7"/>
<line x1="63.5" y1="10" x2="63.5" y2="30" stroke="white" stroke-opacity="0.7"/>
<line x1="76.5" y1="10" x2="76.5" y2="30" stroke="white" stroke-opacity="0.7"/>
<line x1="89.5" y1="10" x2="89.5" y2="30" stroke="white" stroke-opacity="0.7"/>
<line x1="102.5" y1="10" x2="102.5" y2="30" stroke="white" stroke-opacity="0.7"/>
<line x1="256.75" y1="3.27835e-08" x2="256.75" y2="40" stroke="white" stroke-width="1.5"/>
</svg>
