<svg width="64" height="64" viewBox="0 0 64 64" fill="none" xmlns="http://www.w3.org/2000/svg">
<path d="M32 0C14.3226 0 0 14.3226 0 32C0 49.6774 14.3226 64 32 64C49.6774 64 64 49.6774 64 32C64 14.3226 49.6774 0 32 0ZM29.9355 42.3226C29.9355 43.4581 29.0065 44.3871 27.871 44.3871H21.6774C20.5419 44.3871 19.6129 43.4581 19.6129 42.3226V21.6774C19.6129 20.5419 20.5419 19.6129 21.6774 19.6129H27.871C29.0065 19.6129 29.9355 20.5419 29.9355 21.6774V42.3226ZM44.3871 42.3226C44.3871 43.4581 43.4581 44.3871 42.3226 44.3871H36.129C34.9935 44.3871 34.0645 43.4581 34.0645 42.3226V21.6774C34.0645 20.5419 34.9935 19.6129 36.129 19.6129H42.3226C43.4581 19.6129 44.3871 20.5419 44.3871 21.6774V42.3226Z" fill="white"/>
</svg>
