<svg width="100" height="100" viewBox="0 0 100 100" fill="none" xmlns="http://www.w3.org/2000/svg">
<path d="M50 0C22.379 0 0 22.379 0 50C0 77.621 22.379 100 50 100C77.621 100 100 77.621 100 50C100 22.379 77.621 0 50 0ZM46.7742 66.129C46.7742 67.9032 45.3226 69.3548 43.5484 69.3548H33.871C32.0968 69.3548 30.6452 67.9032 30.6452 66.129V33.871C30.6452 32.0968 32.0968 30.6452 33.871 30.6452H43.5484C45.3226 30.6452 46.7742 32.0968 46.7742 33.871V66.129ZM69.3548 66.129C69.3548 67.9032 67.9032 69.3548 66.129 69.3548H56.4516C54.6774 69.3548 53.2258 67.9032 53.2258 66.129V33.871C53.2258 32.0968 54.6774 30.6452 56.4516 30.6452H66.129C67.9032 30.6452 69.3548 32.0968 69.3548 33.871V66.129Z" fill="white"/>
</svg>
