<svg width="21" height="21" viewBox="0 0 21 21" fill="none" xmlns="http://www.w3.org/2000/svg">
<path d="M19.5292 9.00053H19.9139C20.5158 9.00053 21 8.49903 21 7.87569V1.87654C21 1.42191 20.7375 1.00947 20.3302 0.836057C19.9229 0.662644 19.4568 0.756381 19.1445 1.07977L17.2618 3.0295C13.2974 -1.02462 6.91175 -1.01056 2.96994 3.07636C-0.989979 7.17735 -0.989979 13.8233 2.96994 17.9243C6.92985 22.0252 13.3472 22.0252 17.3071 17.9243C17.8728 17.3384 17.8728 16.387 17.3071 15.8011C16.7414 15.2153 15.8227 15.2153 15.257 15.8011C12.4285 18.7304 7.84403 18.7304 5.01552 15.8011C2.18701 12.8719 2.18701 8.12409 5.01552 5.19482C7.83045 2.2796 12.3787 2.26554 15.2117 5.14795L13.3517 7.07892C13.0394 7.40232 12.9489 7.88506 13.1164 8.30687C13.2838 8.72869 13.6821 9.00053 14.1211 9.00053H19.5292Z" fill="white"/>
</svg>
