<svg width="21" height="21" viewBox="0 0 21 21" fill="none" xmlns="http://www.w3.org/2000/svg">
<path d="M7.83963 2.40853L4.59594 6.29991H0.875C0.391562 6.29991 0 6.76976 0 7.34986V13.6496C0 14.2292 0.391562 14.6995 0.875 14.6995H4.59594L7.83963 18.5909C8.3876 19.2484 9.33333 18.7864 9.33333 17.8485V3.15093C9.33333 2.2121 8.38688 1.75187 7.83963 2.40853ZM16.3461 0.173882C15.9389 -0.14679 15.3916 -0.0116092 15.1244 0.47793C14.8568 0.966595 14.9705 1.62325 15.3778 1.94392C17.7939 3.84652 19.2358 7.04493 19.2358 10.5001C19.2358 13.9554 17.7939 17.1538 15.3778 19.0564C14.9705 19.3766 14.8568 20.0337 15.1244 20.5219C15.381 20.9905 15.9239 21.1589 16.3461 20.826C19.2598 18.531 21 14.6702 21 10.4997C21 6.32922 19.2598 2.4689 16.3461 0.173882ZM17.5 10.4997C17.5 7.7204 16.3311 5.16508 14.373 3.66453C13.965 3.35217 13.424 3.49741 13.1655 3.99089C12.907 4.48437 13.0277 5.13752 13.4356 5.45032C14.8848 6.56108 15.75 8.44837 15.75 10.4997C15.75 12.5511 14.8848 14.4383 13.4356 15.5491C13.0277 15.8615 12.907 16.5146 13.1655 17.0085C13.4028 17.4618 13.9355 17.6709 14.373 17.3349C16.3311 15.8343 17.5 13.2795 17.5 10.4997ZM12.3313 7.13681C11.9091 6.85988 11.3765 7.04231 11.1424 7.55022C10.9094 8.05814 11.0636 8.69642 11.4869 8.97684C11.9576 9.28702 12.25 9.87105 12.25 10.4997C12.25 11.1288 11.9576 11.7124 11.4873 12.0226C11.064 12.303 10.9098 12.9413 11.1428 13.4492C11.3772 13.9593 11.9102 14.1404 12.3317 13.8626C13.3609 13.1823 14.0004 11.894 14.0004 10.4993C14.0004 9.10459 13.3609 7.81665 12.3313 7.13681Z" fill="white"/>
</svg>
