<svg width="30" height="23" viewBox="0 0 30 23" fill="none" xmlns="http://www.w3.org/2000/svg">
<path d="M24.0454 1.04541C30.7361 7.77994 30.2165 16.1879 23.5227 22.4772" stroke="white"/>
<path fill-rule="evenodd" clip-rule="evenodd" d="M15.6818 23L5.94968 16.7273H0V6.27273H5.94968L15.6818 0V23ZM6.27273 7.30877V15.6912L14.6364 21.0826V1.91736L6.27273 7.30877ZM21.1475 2.898C23.5802 4.97741 25.0909 8.06464 25.0909 11.501C25.0909 14.9385 23.5802 18.0257 21.1495 20.1041L20.4094 19.3639C22.6425 17.4915 24.0455 14.6583 24.0455 11.5C24.0455 8.34168 22.6425 5.5085 20.4094 3.63609L21.1475 2.898ZM18.0853 5.96014C19.6755 7.27427 20.6739 9.27109 20.6739 11.5C20.6739 13.7289 19.6755 15.7257 18.0853 17.0399L17.3472 16.3018C18.7387 15.1905 19.6284 13.4487 19.6284 11.5021C19.6284 9.55441 18.7387 7.81268 17.3451 6.70032L18.0853 5.96014ZM6.27273 7.30877L1.04545 7.31818V15.6818L6.27273 15.6912V7.30877Z" fill="white"/>
</svg>
